<svg width="128" height="128" viewBox="0 0 128 128" fill="none" xmlns="http://www.w3.org/2000/svg">
<g clip-path="url(#clip0_155_264)">
<rect width="128" height="128" rx="16" fill="white"/>
<rect width="128" height="128" rx="16" fill="url(#paint0_linear_155_264)"/>
<path d="M64.75 102.125C57.5 102.125 51.0417 100.542 45.375 97.375C39.7917 94.2083 35.4167 89.7917 32.25 84.125C29.0833 78.4583 27.5 71.9583 27.5 64.625C27.5 57.2917 29.125 50.7917 32.375 45.125C35.625 39.375 40.0833 34.8333 45.75 31.5C51.4167 28.1667 57.8333 26.5 65 26.5C72 26.5 78.1667 28.0833 83.5 31.25C88.9167 34.4167 93.125 38.7917 96.125 44.375C99.125 49.9583 100.625 56.4167 100.625 63.75C100.625 69.3333 99.6667 74.4583 97.75 79.125C95.8333 83.7917 93.2083 87.875 89.875 91.375C86.5417 94.7917 82.7083 97.4583 78.375 99.375C74.125 101.208 69.5833 102.125 64.75 102.125ZM65.875 95.375C70.375 95.375 74.25 94.2083 77.5 91.875C80.8333 89.5417 83.4167 86.25 85.25 82C87.0833 77.6667 88 72.5833 88 66.75C88 60 86.9583 54.0833 84.875 49C82.875 43.9167 80.0417 39.9583 76.375 37.125C72.7083 34.2083 68.4167 32.75 63.5 32.75C56.4167 32.75 50.7917 35.375 46.625 40.625C42.5417 45.875 40.5 53.0833 40.5 62.25C40.5 68.75 41.5833 74.5 43.75 79.5C45.9167 84.4167 48.9167 88.2917 52.75 91.125C56.5833 93.9583 60.9583 95.375 65.875 95.375Z" fill="black"/>
</g>
<defs>
<linearGradient id="paint0_linear_155_264" x1="37.5" y1="1.36555e-07" x2="93" y2="128" gradientUnits="userSpaceOnUse">
<stop stop-color="#EF5922" stop-opacity="0.05"/>
<stop offset="1" stop-color="#008573" stop-opacity="0.05"/>
</linearGradient>
<clipPath id="clip0_155_264">
<rect width="128" height="128" fill="white"/>
</clipPath>
</defs>
</svg>
